<?xml version="1.0" encoding="UTF-8"?>
<svg xmlns="http://www.w3.org/2000/svg" version="1.1" viewBox="0 0 512 512">
  <!-- Generator: Adobe Illustrator 28.7.0, SVG Export Plug-In . SVG Version: 1.2.0 Build 136)  -->
  <g>
    <g id="_레이어_1" data-name="레이어_1">
      <path d="M-384.5,194.8c-23.41,25.84-37.79,60.22-37.79,97.77,0,8.29.98,16.34,2.19,24.38h115.08l-79.48-122.15ZM-219.68,157.5l-49.98,86.31h131.41c-13.9-39.01-43.4-70.46-81.43-86.31ZM-243.57,149.94c-10.48-2.19-21.21-3.66-32.43-3.66-34.13,0-65.58,11.95-90.45,31.45l56.56,86.8,66.32-114.59ZM-283.8,341.33h-129.95c13.9,39.5,44.37,71.19,83.14,86.8l-2.68-1.46,49.49-85.33ZM-104.6,155.79l34.62-34.62c-10.48-12.43-21.94-24.14-34.38-34.38l-34.62,34.62c-37.79-30.23-85.33-48.27-137.02-48.27-121.17,0-219.43,98.26-219.43,219.43s98.01,219.43,219.43,219.43S-56.57,413.74-56.57,292.57c0-51.69-18.04-99.23-48.03-136.78ZM-276,463.24c-94.35,0-170.67-76.31-170.67-170.67s76.31-170.67,170.67-170.67,170.67,76.31,170.67,170.67-76.31,170.67-170.67,170.67ZM-349.14,0h146.29v48.76h-146.29V0ZM-170.19,393.26c25.11-26.09,40.47-61.68,40.47-100.69,0-8.29-.98-16.34-2.19-24.38h-105.81l67.54,125.07ZM-309.89,434.71c10.97,2.68,22.19,4.14,33.89,4.14,32.67,0,62.66-10.97,87.04-29.01l-51.44-95.09-69.49,119.95Z"/>
      <g>
        <path d="M383.32,199.47c-5.96-4.02-14.34-6.04-25.13-6.04s-19.13,2.02-25.01,6.04c-5.88,4.03-10.03,10.51-12.44,19.45s-3.62,21.3-3.62,37.09,1.21,28.15,3.62,37.08c2.42,8.94,6.56,15.43,12.44,19.45,5.88,4.03,14.21,6.04,25.01,6.04s19.16-2.01,25.13-6.04c5.96-4.02,10.15-10.51,12.56-19.45,2.42-8.94,3.62-21.3,3.62-37.08s-1.21-28.35-3.62-37.21c-2.42-8.86-6.61-15.3-12.56-19.33Z"/>
        <path d="M0,127.27v257.46h512V127.27H0ZM128.44,337.9h-26.82v-143.15l-17.88-2.05v-18.36h44.7v163.56ZM252.01,328.12c-10.23,8.46-24.44,12.68-42.64,12.68s-35.84-3.7-53.88-11.11l8.21-20.78c15.46,6.76,30.04,10.15,43.73,10.15,9.98,0,17.84-2.05,23.56-6.16,5.71-4.11,8.58-10.11,8.58-18,0-5.64-1.49-10.27-4.47-13.89-2.98-3.62-6.73-6.4-11.23-8.33-4.51-1.93-10.55-4.11-18.12-6.52-9.83-2.9-17.84-5.84-24.04-8.82-6.2-2.98-11.48-7.61-15.82-13.89-4.35-6.28-6.52-14.5-6.52-24.64,0-14.98,4.95-26.65,14.86-35.03,9.9-8.37,23.56-12.56,40.95-12.56s32.13,3.14,46.63,9.42l-7.49,20.29c-6.28-2.57-12.85-4.55-19.69-5.92-6.85-1.37-13.09-2.05-18.72-2.05-9.34,0-16.51,1.93-21.5,5.8-4.99,3.87-7.49,9.51-7.49,16.91,0,5.8,1.45,10.47,4.35,14.01,2.9,3.54,6.56,6.28,10.99,8.22,4.43,1.93,10.51,4.03,18.24,6.28,9.98,3.06,18.08,6.12,24.28,9.18,6.2,3.06,11.51,7.73,15.95,14.01,4.43,6.28,6.64,14.74,6.64,25.37,0,15.14-5.12,26.94-15.34,35.39ZM411.34,320.02c-11.28,13.85-28.99,20.78-53.15,20.78-16.91,0-30.48-3.06-40.71-9.18-10.23-6.12-17.64-15.38-22.23-27.78-4.59-12.4-6.89-28.35-6.89-47.84,0-28.83,5.6-50.17,16.79-64.02,11.19-13.85,28.87-20.78,53.03-20.78,16.91,0,30.48,3.06,40.71,9.18,10.23,6.12,17.67,15.38,22.35,27.78,4.67,12.4,7.01,28.35,7.01,47.84,0,28.83-5.64,50.17-16.91,64.02Z"/>
      </g>
    </g>
  </g>
</svg>