<?xml version="1.0" encoding="UTF-8"?>
<svg xmlns="http://www.w3.org/2000/svg" version="1.1" viewBox="0 0 512 512">
  <defs>
    <style>
      .cls-1 {
        fill: orange;
      }
    </style>
  </defs>
  <!-- Generator: Adobe Illustrator 28.7.0, SVG Export Plug-In . SVG Version: 1.2.0 Build 136)  -->
  <g>
    <g id="_레이어_1" data-name="레이어_1">
      <g>
        <path class="cls-1" d="M383.32,199.47c-5.96-4.02-14.34-6.04-25.13-6.04s-19.13,2.02-25.01,6.04c-5.88,4.03-10.03,10.51-12.44,19.45s-3.62,21.3-3.62,37.09,1.21,28.15,3.62,37.08c2.42,8.94,6.56,15.43,12.44,19.45,5.88,4.03,14.21,6.04,25.01,6.04s19.16-2.01,25.13-6.04c5.96-4.02,10.15-10.51,12.56-19.45,2.42-8.94,3.62-21.3,3.62-37.08s-1.21-28.35-3.62-37.21c-2.42-8.86-6.61-15.3-12.56-19.33Z"/>
        <path class="cls-1" d="M0,127.27v257.46h512V127.27H0ZM128.44,337.9h-26.82v-143.15l-17.88-2.05v-18.36h44.7v163.56ZM252.01,328.12c-10.23,8.46-24.44,12.68-42.64,12.68s-35.84-3.7-53.88-11.11l8.21-20.78c15.46,6.76,30.04,10.15,43.73,10.15,9.98,0,17.84-2.05,23.56-6.16,5.71-4.11,8.58-10.11,8.58-18,0-5.64-1.49-10.27-4.47-13.89-2.98-3.62-6.73-6.4-11.23-8.33-4.51-1.93-10.55-4.11-18.12-6.52-9.83-2.9-17.84-5.84-24.04-8.82-6.2-2.98-11.48-7.61-15.82-13.89-4.35-6.28-6.52-14.5-6.52-24.64,0-14.98,4.95-26.65,14.86-35.03,9.9-8.37,23.56-12.56,40.95-12.56s32.13,3.14,46.63,9.42l-7.49,20.29c-6.28-2.57-12.85-4.55-19.69-5.92-6.85-1.37-13.09-2.05-18.72-2.05-9.34,0-16.51,1.93-21.5,5.8-4.99,3.87-7.49,9.51-7.49,16.91,0,5.8,1.45,10.47,4.35,14.01,2.9,3.54,6.56,6.28,10.99,8.22,4.43,1.93,10.51,4.03,18.24,6.28,9.98,3.06,18.08,6.12,24.28,9.18,6.2,3.06,11.51,7.73,15.95,14.01,4.43,6.28,6.64,14.74,6.64,25.37,0,15.14-5.12,26.94-15.34,35.39ZM411.34,320.02c-11.28,13.85-28.99,20.78-53.15,20.78-16.91,0-30.48-3.06-40.71-9.18-10.23-6.12-17.64-15.38-22.23-27.78-4.59-12.4-6.89-28.35-6.89-47.84,0-28.83,5.6-50.17,16.79-64.02,11.19-13.85,28.87-20.78,53.03-20.78,16.91,0,30.48,3.06,40.71,9.18,10.23,6.12,17.67,15.38,22.35,27.78,4.67,12.4,7.01,28.35,7.01,47.84,0,28.83-5.64,50.17-16.91,64.02Z"/>
      </g>
    </g>
  </g>
</svg>