<?xml version="1.0" encoding="UTF-8"?>
<svg xmlns="http://www.w3.org/2000/svg" version="1.1" viewBox="0 0 512 512">
  <defs>
    <style>
      .cls-1 {
        fill: orange;
      }
    </style>
  </defs>
  <!-- Generator: Adobe Illustrator 28.7.0, SVG Export Plug-In . SVG Version: 1.2.0 Build 136)  -->
  <g>
    <g id="_레이어_1" data-name="레이어_1">
      <g id="_레이어_1-2" data-name="_레이어_1">
        <path class="cls-1" d="M147.5,194.8c-23.41,25.84-37.79,60.22-37.79,97.77,0,8.29.98,16.34,2.19,24.38h115.08l-79.48-122.15h0ZM312.32,157.5l-49.98,86.31h131.41c-13.9-39.01-43.4-70.46-81.43-86.31ZM288.43,149.94c-10.48-2.19-21.21-3.66-32.43-3.66-34.13,0-65.58,11.95-90.45,31.45l56.56,86.8,66.32-114.59ZM248.2,341.33H118.25c13.9,39.5,44.37,71.19,83.14,86.8l-2.68-1.46,49.49-85.33h0ZM427.4,155.79l34.62-34.62c-10.48-12.43-21.94-24.14-34.38-34.38l-34.62,34.62c-37.79-30.23-85.33-48.27-137.02-48.27-121.17,0-219.43,98.26-219.43,219.43s98.01,219.43,219.43,219.43,219.43-98.26,219.43-219.43c0-51.69-18.04-99.23-48.03-136.78h0ZM256,463.24c-94.35,0-170.67-76.31-170.67-170.67s76.32-170.67,170.67-170.67,170.67,76.31,170.67,170.67-76.31,170.67-170.67,170.67h0ZM182.86,0h146.29v48.76h-146.29V0ZM361.81,393.26c25.11-26.09,40.47-61.68,40.47-100.69,0-8.29-.98-16.34-2.19-24.38h-105.81l67.54,125.07h-.01ZM222.11,434.71c10.97,2.68,22.19,4.14,33.89,4.14,32.67,0,62.66-10.97,87.04-29.01l-51.44-95.09-69.49,119.95h0Z"/>
      </g>
    </g>
  </g>
</svg>